<?xml version="1.0" encoding="utf-8"?>
<!-- Generator: Adobe Illustrator 25.2.1, SVG Export Plug-In . SVG Version: 6.00 Build 0)  -->
<svg version="1.1" id="Layer_1" xmlns="http://www.w3.org/2000/svg" xmlns:xlink="http://www.w3.org/1999/xlink" x="0px" y="0px"
	 viewBox="0 0 960 360" style="enable-background:new 0 0 960 360;" xml:space="preserve">
<style type="text/css">
	.st0{fill:#FFFFFF;}
</style>
<path class="st0" d="M367.4,25L302.7,5c-1.1-0.3-2.2-0.3-3.3,0l-61.5,20.8c-1.2,0.4-2.2,1.2-2.9,2.3l-49.6,82.5l-49.6-82.5
	c-0.6-1.1-1.7-1.9-2.9-2.3L71.6,5c-1.1-0.4-2.2-0.4-3.3,0L3.7,25c-2.2,0.7-3.6,2.6-3.7,4.9c0,0.3,0,0.6,0,0.9v283.7
	c0,1.9,1,3.7,2.7,4.6L64,354.6c0.8,0.5,1.7,0.7,2.7,0.7s2.1-0.3,3-0.9l52.1-35.5c1.5-1,2.3-2.6,2.3-4.4v-40.2l22.2,40.2
	c0.9,1.7,2.7,2.8,4.7,2.8h69.5c1.9,0,3.7-1.1,4.7-2.8l22-40.2v40.2c0,1.8,0.9,3.4,2.3,4.4l52.1,35.5c1.7,1.1,3.9,1.2,5.7,0.2
	l61.3-35.5c1.6-1,2.7-2.7,2.7-4.6c0,0,0.1-284.2,0.1-284.6C371.1,27.6,369.6,25.6,367.4,25z M65,54.1l0.1,0.2l119,198.6
	c0.3,0.5,0.9,0.9,1.5,0.9s1.2-0.3,1.5-0.9l119-198.6l0.1-0.2L364,31l0,0v280.7l-57.7,33.4v-187c0-0.8-0.5-1.5-1.3-1.7
	c-0.1,0-0.3,0-0.4,0c-0.6,0-1.2,0.3-1.6,0.9l-0.2,0.4l-83.4,150.8H152L68.4,157.6l-0.2-0.4c-0.3-0.6-0.9-0.9-1.6-0.9
	c-0.1,0-0.3,0-0.4,0c-0.8,0.2-1.3,0.9-1.3,1.7v187.1L7.1,311.8V31.1L65,54.1z M116.9,311.8l-48.5,33.1v-180l48.5,87.5V311.8z
	 M254.2,252.4l48.5-87.5v177.3v2.6l-48.5-33.1V252.4z M187.6,119.3l52.9-87.9l0,0l61.4,22.3l0.3,0.1l0,0L225.4,182L187.6,119.3z
	 M223.2,185.3l-37.7,63.3L68.9,53.8l0,0l0.3-0.1l61.4-22.3L223.2,185.3z M304.6,50.9l-59.5-21.6l56.1-19l59.3,18.3L304.6,50.9z
	 M10.6,28.6l59.3-18.3l56.1,19L66.5,50.9L10.6,28.6z"/>
<g>
	<path class="st0" d="M464.8,46.2V100h-9.7V46.2h-14.4v-9h38.4v9H464.8z"/>
	<path class="st0" d="M525.5,62h26.9V37.1h9.6v62.8h-9.6V71h-26.9v28.9h-9.6V37.1h9.6V62z"/>
	<path class="st0" d="M638.8,46.2h-25v15.9h24.3v9h-24.3v19.8h25v9h-34.7V37.1h34.7V46.2z"/>
	<path class="st0" d="M460.5,145.4c8.8,0,16.4,0.9,23.4,6.1c7.6,5.7,12.1,14.9,12.1,25.3c0,10.5-4.3,19.5-12.6,25.3
		c-7.3,5.2-14.2,6-23,6h-13v-62.8L460.5,145.4L460.5,145.4z M456.9,199.2h4.1c4.7,0,11.2-0.4,16.7-4.4c4.3-3.3,8.6-9.3,8.6-17.9
		c0-8.3-4-14.8-8.5-18.1c-5.5-4-12.1-4.3-16.8-4.3h-4.1L456.9,199.2L456.9,199.2z"/>
	<path class="st0" d="M545.8,145.4v62.8h-9.6v-62.8H545.8z"/>
	<path class="st0" d="M621.6,175.6h25.9v0.5c0,10.7-3.2,19.5-9.3,25.4c-6.5,6.3-14.2,8-21.4,8c-9.1,0-15.6-2.6-21.4-8.6
		c-6.1-6.3-9.3-14.7-9.3-23.7c0-9.8,4-18.3,9.1-23.4c5.4-5.5,13.9-9.4,23.6-9.4c5.7,0,11.5,1.2,16.4,4c5.2,2.9,8.4,6.6,10.2,9.4
		l-7.6,5.4c-1.9-2.6-4.7-5.5-7.7-7.2c-3.5-2.1-7.3-2.7-11.1-2.7c-8.2,0-13.5,3.4-16.6,6.5c-4.1,4.1-6.7,10.8-6.7,17.6
		c0,6.3,2.4,12.6,6.5,17c4.3,4.6,9.7,6.3,15.7,6.3c5.5,0,10-1.6,14-5.6c3.5-3.4,4.9-7.1,5.3-10.6h-15.6L621.6,175.6L621.6,175.6z"/>
	<path class="st0" d="M697.4,145.4v62.8h-9.6v-62.8H697.4z"/>
	<path class="st0" d="M758.1,154.5v53.8h-9.6v-53.8h-14.4v-9h38.4v9H758.1z"/>
	<path class="st0" d="M840,193.1h-26.8l-6.9,15.2h-10.4l31.3-66.5l29.8,66.5h-10.4L840,193.1z M836.2,184l-9.3-21.3l-9.7,21.3H836.2
		z"/>
	<path class="st0" d="M900.4,145.4v53.8h18.5v9h-28.1v-62.8H900.4z"/>
	<path class="st0" d="M445.4,316.5l13.2-67.5l21.8,48.8l22-48.8l11.9,67.5h-9.8l-6.4-37.9l-18.3,40.8l-18.1-40.9l-6.6,37.9h-9.7
		V316.5z"/>
	<path class="st0" d="M590.8,301.4H564l-6.9,15.2h-10.4l31.3-66.5l29.8,66.5h-10.4L590.8,301.4z M587,292.3l-9.3-21.3l-9.7,21.3H587
		z"/>
	<path class="st0" d="M654.8,307.5h30.1v9h-45.8l30.9-53.8h-25.8v-9h41.4L654.8,307.5z"/>
	<path class="st0" d="M759,262.8h-25v15.9h24.3v9H734v19.8h25v9h-34.7v-62.8H759V262.8z"/>
</g>
</svg>
